<svg xmlns="http://www.w3.org/2000/svg" width="1600" height="900" viewBox="0 0 1600 900" preserveAspectRatio="xMidYMid slice">
  <defs>
    <linearGradient id="bg" x1="0" y1="0" x2="1" y2="1">
      <stop offset="0" stop-color="#0a1f37"/>
      <stop offset="1" stop-color="#16395c"/>
    </linearGradient>
    <linearGradient id="gold" x1="0" y1="0" x2="0" y2="1">
      <stop offset="0" stop-color="#d4af6a"/>
      <stop offset="1" stop-color="#b8924f"/>
    </linearGradient>
  </defs>
  <rect width="1600" height="900" fill="url(#bg)"/>
  <g opacity="0.06" stroke="#ffffff" stroke-width="1">
    <path d="M0 150 H1600 M0 300 H1600 M0 450 H1600 M0 600 H1600 M0 750 H1600"/>
    <path d="M200 0 V900 M400 0 V900 M600 0 V900 M800 0 V900 M1000 0 V900 M1200 0 V900 M1400 0 V900"/>
  </g>
  <g transform="translate(1120 250)" opacity="0.10">
    <circle cx="160" cy="160" r="320" fill="url(#gold)"/>
  </g>
  <g transform="translate(1090 230)" opacity="0.7" fill="none" stroke="url(#gold)" stroke-width="6" stroke-linecap="round" stroke-linejoin="round">
    <line x1="160" y1="40" x2="160" y2="360"/>
    <line x1="60" y1="120" x2="260" y2="120"/>
    <circle cx="160" cy="40" r="14" fill="url(#gold)" stroke="none"/>
    <path d="M60 120 L20 240 H100 Z"/>
    <path d="M260 120 L220 240 H300 Z"/>
    <path d="M20 240 a40 40 0 0 0 80 0" fill="none"/>
    <path d="M220 240 a40 40 0 0 0 80 0" fill="none"/>
    <rect x="120" y="360" width="80" height="18" rx="6" fill="url(#gold)" stroke="none"/>
    <rect x="90" y="378" width="140" height="16" rx="6" fill="url(#gold)" stroke="none"/>
  </g>
</svg>
